<svg width="90" height="90" viewBox="0 0 90 90" fill="none" xmlns="http://www.w3.org/2000/svg">
<circle cx="4.09091" cy="4.09091" r="4.09091" fill="#F4F4F4"/>
<circle cx="4.09091" cy="20.4542" r="4.09091" fill="#F4F4F4"/>
<circle cx="4.09091" cy="36.8175" r="4.09091" fill="#F4F4F4"/>
<circle cx="4.09091" cy="53.1827" r="4.09091" fill="#F4F4F4"/>
<circle cx="4.09091" cy="69.546" r="4.09091" fill="#F4F4F4"/>
<circle cx="4.09091" cy="85.9093" r="4.09091" fill="#F4F4F4"/>
<circle cx="20.4542" cy="4.09091" r="4.09091" fill="#F4F4F4"/>
<circle cx="20.4542" cy="20.4542" r="4.09091" fill="#F4F4F4"/>
<circle cx="20.4542" cy="36.8175" r="4.09091" fill="#F4F4F4"/>
<circle cx="20.4542" cy="53.1827" r="4.09091" fill="#F4F4F4"/>
<circle cx="20.4542" cy="69.546" r="4.09091" fill="#F4F4F4"/>
<circle cx="20.4542" cy="85.9093" r="4.09091" fill="#F4F4F4"/>
<circle cx="36.8175" cy="4.09091" r="4.09091" fill="#F4F4F4"/>
<circle cx="36.8175" cy="20.4542" r="4.09091" fill="#F4F4F4"/>
<circle cx="36.8175" cy="36.8175" r="4.09091" fill="#F4F4F4"/>
<circle cx="36.8175" cy="53.1827" r="4.09091" fill="#F4F4F4"/>
<circle cx="36.8175" cy="69.546" r="4.09091" fill="#F4F4F4"/>
<circle cx="36.8175" cy="85.9093" r="4.09091" fill="#F4F4F4"/>
<circle cx="53.1827" cy="4.09091" r="4.09091" fill="#F4F4F4"/>
<circle cx="53.1827" cy="20.4542" r="4.09091" fill="#F4F4F4"/>
<circle cx="53.1827" cy="36.8175" r="4.09091" fill="#F4F4F4"/>
<circle cx="53.1827" cy="53.1827" r="4.09091" fill="#F4F4F4"/>
<circle cx="53.1827" cy="69.546" r="4.09091" fill="#F4F4F4"/>
<circle cx="53.1827" cy="85.9093" r="4.09091" fill="#F4F4F4"/>
<circle cx="69.546" cy="4.09091" r="4.09091" fill="#F4F4F4"/>
<circle cx="69.546" cy="20.4542" r="4.09091" fill="#F4F4F4"/>
<circle cx="69.546" cy="36.8175" r="4.09091" fill="#F4F4F4"/>
<circle cx="69.546" cy="53.1827" r="4.09091" fill="#F4F4F4"/>
<circle cx="69.546" cy="69.546" r="4.09091" fill="#F4F4F4"/>
<circle cx="69.546" cy="85.9093" r="4.09091" fill="#F4F4F4"/>
<circle cx="85.9093" cy="4.09091" r="4.09091" fill="#F4F4F4"/>
<circle cx="85.9093" cy="20.4542" r="4.09091" fill="#F4F4F4"/>
<circle cx="85.9093" cy="36.8175" r="4.09091" fill="#F4F4F4"/>
<circle cx="85.9093" cy="53.1827" r="4.09091" fill="#F4F4F4"/>
<circle cx="85.9093" cy="69.546" r="4.09091" fill="#F4F4F4"/>
<circle cx="85.9093" cy="85.9093" r="4.09091" fill="#F4F4F4"/>
</svg>
