<svg width="60" height="60" viewBox="0 0 60 60" fill="none" xmlns="http://www.w3.org/2000/svg">
<g clip-path="url(#clip0)">
<path d="M22.628 27.5993L19.511 28.8473C18.4459 29.2703 17.2396 28.7497 16.8166 27.6847C16.5998 27.1386 16.6246 26.5261 16.885 25.9993L17.572 24.6253C17.9571 23.8552 17.806 22.9251 17.197 22.3163L12.414 17.5333L13.707 16.2403C14.0974 15.8498 14.0974 15.2168 13.707 14.8263L10.414 11.5334L10.707 11.2404C11.0899 10.8578 11.0988 10.2399 10.727 9.84643L1.727 0.313425C1.34775 -0.0882004 0.714875 -0.1062 0.313375 0.27305C0.1135 0.4618 0.000125 0.724425 0 0.9993V13.9993C0 14.2938 0.129875 14.5733 0.355 14.7633L3.355 17.2993C3.752 17.6344 4.33962 17.6097 4.707 17.2423L5 16.9463L8.293 20.2393C8.6835 20.6297 9.3165 20.6297 9.707 20.2393L11 18.9463L15.783 23.7293L15.1 25.0993C14.0948 27.1111 14.9108 29.5568 16.9225 30.5619C17.9634 31.0821 19.1769 31.1319 20.257 30.6993L23.376 29.4523L22.628 27.5993ZM4.293 14.8283L3.943 15.1783L2 13.5353V3.5153L8.606 10.5153L8.293 10.8283L4.293 14.8283ZM9 18.1183L6.414 15.5323L9 12.9463L11.586 15.5353L9 18.1183Z" fill="#565656"/>
<path d="M59.383 29.0762C59.0093 28.9213 58.579 29.007 58.293 29.2932L44.293 43.2932C43.9026 43.6837 43.9026 44.3167 44.293 44.7072L45.086 45.5002L41.162 49.4242C39.6099 48.4725 37.8205 47.9789 36 48.0002C31.589 48.0002 28 50.6912 28 54.0002C28 57.3092 31.589 60.0002 36 60.0002C40.411 60.0002 44 57.3092 44 54.0002C43.9801 52.7842 43.5148 51.6178 42.692 50.7222L46.5 46.9142L47.293 47.7072C47.6835 48.0975 48.3165 48.0975 48.707 47.7072L59.707 36.7072C59.8945 36.5197 60 36.2654 60 36.0002V30.0002C60.0001 29.5958 59.7566 29.2312 59.383 29.0762ZM36 58.0002C32.748 58.0002 30 56.1682 30 54.0002C30 51.8322 32.748 50.0002 36 50.0002C39.252 50.0002 42 51.8322 42 54.0002C42 56.1682 39.252 58.0002 36 58.0002ZM58 35.5862L48 45.5862L46.414 44.0002L58 32.4142V35.5862Z" fill="#565656"/>
<path d="M34.4785 33.7944C34.0655 31.3208 31.7254 29.6501 29.2516 30.0633C27.3388 30.3826 25.8399 31.8815 25.5205 33.7944L22.4995 51.9204C22.2731 53.2763 20.9905 54.1919 19.6346 53.9656C18.5596 53.7861 17.7264 52.9283 17.5785 51.8484L14.9905 32.8654C14.972 32.7234 14.9233 32.5869 14.8475 32.4654L14.2915 31.5754C12.598 28.8679 11.3773 25.8921 10.6815 22.7754L8.72852 23.2114C9.47477 26.5511 10.7839 29.7396 12.5995 32.6404L13.0415 33.3484L15.6015 52.1184C15.9359 54.5744 18.1979 56.2944 20.6539 55.96C22.6031 55.6946 24.1524 54.1909 24.4755 52.2504L27.4965 34.1244C27.6971 32.8984 28.7573 31.9988 29.9995 32.0004C31.2434 31.9969 32.3056 32.8969 32.5065 34.1244L34.5135 46.1654L36.4855 45.8354L34.4785 33.7944Z" fill="#565656"/>
<path d="M39.3836 4.00086C37.6753 4.00086 35.9849 4.34787 34.4148 5.02062C31.5942 6.22262 28.4054 6.22262 25.5848 5.02062C20.6301 2.89711 14.8734 4.15636 11.2578 8.15461L12.7418 9.50062C14.7552 7.27537 17.6149 6.00424 20.6158 6.00062C22.0533 5.99899 23.4761 6.29099 24.7968 6.85861C28.1206 8.27662 31.8791 8.27662 35.2028 6.85861C40.5921 4.54949 46.8327 7.04636 49.1418 12.4356C49.7079 13.7569 49.9998 15.1792 49.9998 16.6166C50.0016 21.9085 48.5142 27.0941 45.7078 31.5806L45.1518 32.4706C45.0761 32.5921 45.0273 32.7286 45.0088 32.8706L44.1908 38.8706L46.1718 39.1406L46.9618 33.3536L47.4038 32.6456C50.4098 27.8399 52.0024 22.2851 51.9998 16.6166C51.9997 9.64899 46.3512 4.00074 39.3836 4.00086Z" fill="#565656"/>
</g>
<defs>
<clipPath id="clip0">
<rect width="60" height="60" fill="white"/>
</clipPath>
</defs>
</svg>
