<svg width="80" height="80" viewBox="0 0 80 80" fill="none" xmlns="http://www.w3.org/2000/svg">
<g clip-path="url(#clip0)">
<path d="M51.6 6.07711e-06C49.9212 -0.00166059 48.2597 0.339506 46.7173 1.00267C42.4235 2.83334 37.5687 2.83334 33.2747 1.00267C26.9777 -1.68949 19.6905 1.23267 16.9983 7.52967C16.3402 9.06901 16.0007 10.7258 16 12.4C16.006 17.5665 17.1993 22.6627 19.488 27.2947L21.388 33.716C21.5572 34.2807 22.0772 34.6673 22.6667 34.6667H26.6667V41.3333C26.6667 42.0697 27.2637 42.6667 28 42.6667H32V45.7693L28.1467 45.3413L27.8533 47.992L32 48.4533V53.7693L28.1467 53.3413L27.8533 55.992L32 56.4533V61.7693L28.1467 61.3413L27.8533 63.992L32 64.4533V69.7693L28.1467 69.3413L27.8533 71.992L32.0893 72.4627C32.0893 72.4733 32.0893 72.484 32.0893 72.4947L34.756 79.1613C34.9592 79.6698 35.4525 80.0023 36 80H44C44.5457 80.0002 45.0363 79.668 45.2387 79.1613L47.2387 74.1467L51.848 74.6587L52.1413 72.008L48 71.5467V66.2307L51.8533 66.6587L52.1467 64.008L48 63.5467V58.2307L51.8533 58.6587L52.1467 56.008L48 55.5467V50.2307L51.8533 50.6587L52.1467 48.008L48 47.5467V42.6667H52C52.7363 42.6667 53.3333 42.0697 53.3333 41.3333V34.6667H57.3333C57.924 34.6668 58.4443 34.2783 58.612 33.712L60.512 27.2907C62.8 22.6598 63.9935 17.5652 64 12.4C63.9948 5.55384 58.4462 0.00517274 51.6 6.07711e-06ZM43.0933 77.3333H36.9027L35.088 72.8L44.4947 73.8453L43.0933 77.3333ZM45.3333 71.2507L34.6667 70.0653V64.7493L45.3333 65.9347V71.2507ZM45.3333 63.2507L34.6667 62.0653V56.7493L45.3333 57.9347V63.2507ZM45.3333 55.2507L34.6667 54.0653V48.7493L45.3333 49.9347V55.2507ZM45.3333 47.2507L34.6667 46.0653V42.6667H45.3333V47.2507ZM50.6667 40H29.3333V34.6667H50.6667V40ZM58.0733 26.204C58.0387 26.2738 58.0102 26.3465 57.988 26.4213L56.3373 32H23.6627L22.012 26.4213C21.9898 26.3465 21.9613 26.2738 21.9267 26.204C19.7885 21.9162 18.6727 17.1913 18.6667 12.4C18.668 7.02451 23.0267 2.66767 28.4023 2.66901C29.7175 2.66934 31.0188 2.93617 32.228 3.45334C37.1925 5.57067 42.8062 5.57067 47.7707 3.45334C52.7127 1.33851 58.4335 3.63034 60.5483 8.57234C61.066 9.78201 61.333 11.0842 61.3333 12.4C61.3273 17.1913 60.2115 21.9162 58.0733 26.204Z" fill="#565656"/>
<path d="M26.0007 5.50977C23.1893 6.99927 21.404 9.8931 21.334 13.0738V14.6671H24.0007V13.0671C24.08 10.8431 25.3548 8.83543 27.334 7.81776L26.0007 5.50977Z" fill="#565656"/>
</g>
<defs>
<clipPath id="clip0">
<rect width="80" height="80" fill="white"/>
</clipPath>
</defs>
</svg>
