<svg width="70" height="70" viewBox="0 0 70 70" fill="none" xmlns="http://www.w3.org/2000/svg">
<g clip-path="url(#clip0)">
<path d="M1.34821 26.0683C1.90315 26.0683 2.41421 25.719 2.61833 25.2038C2.82833 24.674 2.67917 24.0495 2.2496 23.6735C1.81374 23.2921 1.16651 23.2295 0.664891 23.5181C0.162997 23.807 -0.105246 24.4016 0.008231 24.9691C0.134286 25.5991 0.70495 26.0683 1.34821 26.0683Z" fill="#565656"/>
<path d="M56.1581 26.0061C56.3295 23.6716 56.0629 21.4622 55.3638 19.4308C53.594 14.2879 49.9482 10.4947 45.3614 9.02367C38.9868 6.97954 33.5351 10.063 29.9887 12.5602C28.8603 13.3546 27.3441 13.3546 26.2159 12.5602C22.6695 10.063 17.2175 6.97968 10.8432 9.02367C6.68614 10.3567 3.33086 13.5455 1.39515 18.0023C1.09436 18.6948 1.41197 19.5001 2.1046 19.801C2.79682 20.1018 3.60238 19.7842 3.90331 19.0916C5.52073 15.3674 8.28182 12.7167 11.6783 11.6275C16.787 9.9892 21.3866 12.5304 24.4567 14.6666C25.5145 16.5741 27.2253 17.9927 29.3084 18.681C30.2013 18.9759 31.1189 19.1223 32.0327 19.1223C33.3661 19.1223 34.6913 18.8105 35.917 18.1935C36.5914 17.854 36.8629 17.0319 36.5235 16.3576C36.184 15.683 35.3619 15.4116 34.6876 15.7511C33.274 16.4624 31.6683 16.581 30.1662 16.0847C29.8899 15.9933 29.6231 15.8833 29.3673 15.7556C30.1418 15.5899 30.8901 15.2701 31.5631 14.7962C34.6316 12.6354 39.314 9.95638 44.5265 11.6277C48.2841 12.8326 51.2917 16.0011 52.7783 20.3206C53.3382 21.9477 53.5612 23.7289 53.4432 25.6247C53.085 25.6027 52.724 25.5915 52.3605 25.5915C42.6355 25.5915 34.7235 33.5618 34.7235 43.3586C34.7235 48.1832 36.6423 52.5647 39.7515 55.7696C39.4922 56.3187 39.2359 56.863 38.9839 57.3992C38.3986 58.6443 37.2321 58.9773 36.3366 58.8736C35.4401 58.7699 34.3802 58.1792 34.0947 56.8326L30.877 41.6627C30.8719 41.6389 30.8662 41.6151 30.8599 41.5916C30.52 40.3269 29.4119 39.4772 28.1022 39.4772C26.7927 39.4772 25.6844 40.3269 25.3447 41.5916C25.3384 41.6151 25.3327 41.6389 25.3276 41.6627L22.1099 56.8326C21.8242 58.1792 20.7645 58.7699 19.8679 58.8736C18.9715 58.9771 17.8057 58.6445 17.2205 57.3992C12.1218 46.5514 8.90705 40.1262 7.66521 38.3018C5.88919 35.6925 4.56395 33.0608 3.72666 30.4801C3.49369 29.7619 2.72217 29.3685 2.00424 29.6015C1.28605 29.8345 0.892697 30.6057 1.12567 31.3239C2.04307 34.1513 3.48275 37.0168 5.40465 39.8405C6.53274 41.4979 9.85015 48.1469 14.7457 58.5625C15.6433 60.4722 17.4807 61.6272 19.5391 61.6272C19.7513 61.6272 19.9661 61.6149 20.1821 61.5899C22.4949 61.3223 24.3015 59.6777 24.7847 57.4L27.9927 42.2753C28.0052 42.2383 28.0261 42.2116 28.1021 42.2116C28.1782 42.2116 28.199 42.2383 28.2116 42.2755L31.4198 57.3999C31.9028 59.6776 33.7095 61.3222 36.0222 61.5897C38.3349 61.8572 40.4684 60.6689 41.4587 58.5623C41.6009 58.2596 41.7446 57.9545 41.8894 57.6472C44.8199 59.8323 48.443 61.1257 52.3606 61.1257C62.0856 61.1257 69.9976 53.1554 69.9976 43.3585C69.9976 34.8746 64.0641 27.7606 56.1581 26.0061ZM52.3606 58.3913C44.1434 58.3913 37.4581 51.6476 37.4581 43.3585C37.4581 35.0694 44.1434 28.3258 52.3606 28.3258C60.5779 28.3258 67.2632 35.0694 67.2632 43.3585C67.2632 51.6476 60.5779 58.3913 52.3606 58.3913Z" fill="#565656"/>
<path d="M58.8933 38.674H57.0215V36.7742C57.0215 35.0991 55.6647 33.7363 53.9969 33.7363H50.7216C49.0538 33.7363 47.697 35.0991 47.697 36.7742V38.674H45.8252C44.1575 38.674 42.8008 40.0367 42.8008 41.7118V45.016C42.8008 46.691 44.1576 48.0539 45.8252 48.0539H47.697V49.9537C47.697 51.6287 49.0538 52.9915 50.7216 52.9915H53.9969C55.6647 52.9915 57.0215 51.6288 57.0215 49.9537V48.0539H58.8933C60.561 48.0539 61.9179 46.6912 61.9179 45.016V41.7118C61.9179 40.0367 60.561 38.674 58.8933 38.674ZM59.1834 45.0159C59.1834 45.1832 59.0532 45.3193 58.8933 45.3193H55.6543C54.8992 45.3193 54.2871 45.9314 54.2871 46.6865V49.9535C54.2871 50.1209 54.1569 50.2569 53.9969 50.2569H50.7216C50.5616 50.2569 50.4315 50.1209 50.4315 49.9535V46.6865C50.4315 45.9314 49.8194 45.3193 49.0642 45.3193H45.8252C45.6653 45.3193 45.5353 45.1832 45.5353 45.0159V41.7117C45.5353 41.5443 45.6654 41.4083 45.8252 41.4083H49.0642C49.8194 41.4083 50.4315 40.7962 50.4315 40.0411V36.7742C50.4315 36.6068 50.5616 36.4708 50.7216 36.4708H53.9969C54.1569 36.4708 54.2871 36.6068 54.2871 36.7742V40.0412C54.2871 40.7963 54.8992 41.4084 55.6543 41.4084H58.8933C59.0532 41.4084 59.1834 41.5445 59.1834 41.7118V45.0159Z" fill="#565656"/>
</g>
<defs>
<clipPath id="clip0">
<rect width="70" height="70" fill="white"/>
</clipPath>
</defs>
</svg>
