<svg width="80" height="80" viewBox="0 0 80 80" fill="none" xmlns="http://www.w3.org/2000/svg">
<path d="M76.0667 48.6339L53.7427 43.0673C52.6475 42.7941 51.5117 42.7218 50.3907 42.8539L29.7694 45.2806L8.59348 26.5886C7.67682 25.7797 6.49615 25.3333 5.27349 25.334H5.01882C2.24699 25.334 0 27.5808 0 30.3526C0 31.7805 0.608165 33.1406 1.67216 34.0928L23.1388 53.2928C23.7976 53.8796 24.5366 54.3699 25.3334 54.7488V59.8807C25.3274 62.8866 27.7594 65.3282 30.7654 65.3341C31.6898 65.3359 32.5993 65.1022 33.4081 64.6554L42.6667 66.4354V70.6672H12.0001C8.32015 70.6716 5.33782 73.6539 5.33349 77.3339C5.33349 78.0702 5.93049 78.6672 6.66682 78.6672H73.3333C74.0697 78.6672 74.6667 78.0702 74.6667 77.3339V71.7206C74.6843 67.3562 71.661 63.5682 67.4013 62.6179L44.2961 57.3672H44.2801H44.2614L38.7001 56.2539L39.5001 54.6646L51.9 53.3593L73.516 59.0926H73.5347C73.9432 59.1956 74.3628 59.2476 74.784 59.2472C77.6558 59.2561 79.9911 56.9351 80 54.0633C80 54.0548 80 54.0464 80 54.0379V53.6833C80.0026 51.2971 78.381 49.2153 76.0667 48.6339ZM42.6667 76.0005H8.22815C8.79531 74.4035 10.3055 73.3359 12.0001 73.3339H42.6667V76.0005ZM45.3334 60.3379L66.8107 65.2192C69.4693 65.8134 71.493 67.9751 71.9107 70.6672H48.0001V73.3339H72V76.0005H45.3334V60.3379ZM33.2788 61.1272C32.5899 62.5036 30.9159 63.0609 29.5396 62.3721C28.5963 61.8999 28.0003 60.9356 28.0001 59.8806V55.5606C28.7723 55.6791 29.5561 55.6998 30.3334 55.6219L36.3481 54.9886L33.2788 61.1272ZM42.6667 59.7606V63.7206L35.6361 62.3672C35.6454 62.3512 35.6561 62.3366 35.6654 62.3192L37.4641 58.7192L42.6667 59.7606ZM77.3333 54.0379C77.3328 55.4414 76.1946 56.5789 74.7912 56.5784C74.5865 56.5784 74.3827 56.5536 74.184 56.5046L52.3414 50.7113C52.185 50.6698 52.0224 50.6571 51.8614 50.6739L30.0561 52.9699C28.1836 53.1689 26.3144 52.5653 24.9121 51.3086L3.44549 32.1086C2.47566 31.2445 2.38999 29.7578 3.25416 28.788C3.70249 28.2848 4.34499 27.9981 5.01882 28.0006H5.27349C5.84649 28.0008 6.39965 28.2098 6.82948 28.5886L28.4508 47.6673C28.7344 47.9193 29.1128 48.0373 29.4894 47.9913L50.7027 45.4966C51.5052 45.4006 52.3187 45.4521 53.1027 45.6486L75.4227 51.2193C76.548 51.5071 77.3348 52.5216 77.3333 53.6833V54.0379Z" fill="#565656"/>
<path d="M31.9987 57.334H29.332V60.0007H31.9987V57.334Z" fill="#565656"/>
<path d="M79.7651 4.35998C79.1606 2.55415 77.4703 1.33615 75.566 1.33398H46.666C44.4568 1.33398 42.666 3.12481 42.666 5.33398V32.0006H45.3327V5.33398C45.3327 4.59764 45.9297 4.00065 46.666 4.00065H75.566C76.541 3.99831 77.3331 4.78681 77.3354 5.76181C77.3373 6.52464 76.8488 7.20247 76.1246 7.44197L64.0673 11.4673C62.4365 12.0111 61.3355 13.5361 61.3326 15.2553V17.4673C60.0928 17.7239 58.952 18.3296 58.0447 19.2126C56.8775 17.3423 54.415 16.7721 52.5447 17.9393C51.3737 18.6699 50.6633 19.9536 50.666 21.3339V25.3339C50.666 27.5431 52.4568 29.3339 54.666 29.3339V26.6673C53.9297 26.6673 53.3327 26.0703 53.3327 25.3339V21.3339C53.3327 20.5976 53.9297 20.0006 54.666 20.0006C55.4023 20.0006 55.9993 20.5976 55.9993 21.3339V24.0006C55.9993 27.6824 58.9841 30.6673 62.666 30.6673C66.3478 30.6673 69.3326 27.6824 69.3326 24.0006V21.3339C69.3326 20.5976 69.9296 20.0006 70.666 20.0006C71.4023 20.0006 71.9993 20.5976 71.9993 21.3339V25.3339C71.9993 26.0703 71.4023 26.6673 70.666 26.6673V29.3339C72.8751 29.3339 74.666 27.5431 74.666 25.3339V21.3339C74.6696 19.1293 72.8853 17.339 70.6806 17.3353C69.301 17.333 68.0178 18.0433 67.2873 19.2138C66.3801 18.3303 65.2393 17.7243 63.9993 17.4671V15.254C63.9998 14.6803 64.367 14.1713 64.9113 13.99L76.9686 9.9713C79.2903 9.19413 80.5424 6.68181 79.7651 4.35998ZM66.666 24.0006C66.666 26.2098 64.8751 28.0006 62.666 28.0006C60.4568 28.0006 58.666 26.2098 58.666 24.0006C58.666 21.7914 60.4568 20.0006 62.666 20.0006C64.8751 20.0006 66.666 21.7916 66.666 24.0006Z" fill="#565656"/>
<path d="M64.0007 22.666H61.334V25.3327H64.0007V22.666Z" fill="#565656"/>
<path d="M47.9987 34.666H39.9987V30.666C39.9987 28.4568 38.2078 26.666 35.9987 26.666C33.7895 26.666 31.9987 28.4568 31.9987 30.666V31.9993H34.6653V30.666C34.6653 29.9297 35.2623 29.3327 35.9987 29.3327C36.735 29.3327 37.332 29.9297 37.332 30.666V34.666H26.6654C25.929 34.666 25.332 35.263 25.332 35.9993V38.666H27.9987V37.3327H46.6653V41.3327H49.332V35.9993C49.332 35.263 48.735 34.666 47.9987 34.666Z" fill="#565656"/>
</svg>
