<svg width="60" height="60" viewBox="0 0 60 60" fill="none" xmlns="http://www.w3.org/2000/svg">
<path d="M60 23.5003V21.5003H57.864C57.947 20.5853 58 19.6663 58 18.7423C57.9996 15.8467 55.6519 13.4997 52.7562 13.5001C51.3661 13.5003 50.033 14.0525 49.05 15.0353C48.4694 15.6136 47.5306 15.6136 46.95 15.0353C44.9126 12.9926 41.605 12.9882 39.5621 15.0256C39.3566 15.2305 39.1686 15.4522 39 15.6883C37.3232 13.3405 34.0606 12.7965 31.7127 14.4732C31.4766 14.6418 31.2549 14.8298 31.05 15.0353C30.4694 15.6136 29.5306 15.6136 28.95 15.0353C26.9126 12.9926 23.605 12.9882 21.5621 15.0256C21.3566 15.2305 21.1686 15.4522 21 15.6883C19.3232 13.3405 16.0606 12.7965 13.7128 14.4732C13.4766 14.6418 13.2549 14.8298 13.05 15.0353C12.4694 15.6136 11.5306 15.6136 10.95 15.0353C8.90225 12.988 5.58262 12.9883 3.53525 15.0361C2.55237 16.0191 2.00012 17.3522 2 18.7423C2 19.6663 2.053 20.5853 2.136 21.5003H0V23.5003H2.379C2.59888 24.8422 2.90863 26.1678 3.306 27.4683C3.206 27.4583 3.106 27.4303 3 27.4303C1.862 27.4296 0.799 27.9982 0.168 28.9453C0.05875 29.1098 0.000375 29.3028 0 29.5003V45.5003C0 46.0526 0.44775 46.5003 1 46.5003H59C59.5522 46.5003 60 46.0526 60 45.5003V29.5003C59.9996 29.3028 59.9412 29.1098 59.832 28.9453C59.201 27.9982 58.138 27.4296 57 27.4303C56.9 27.4303 56.8 27.4583 56.694 27.4683C57.0914 26.1678 57.4011 24.8422 57.621 23.5003H60ZM43.243 15.5003C44.1035 15.4982 44.9291 15.8402 45.536 16.4503C46.898 17.8082 49.102 17.8082 50.464 16.4503C51.7305 15.184 53.7839 15.1841 55.0503 16.4506C55.658 17.0585 55.9996 17.8827 56 18.7423C56 19.6663 55.94 20.5853 55.851 21.5003H51V20.5003C51 19.9481 50.5522 19.5003 50 19.5003H46C45.4478 19.5003 45 19.9481 45 20.5003V21.5003H40.149C40.06 20.5853 40 19.6663 40 18.7423C40.0023 16.9525 41.453 15.5021 43.243 15.5003ZM46 25.5003H50C50.5522 25.5003 51 25.0526 51 24.5003V23.5003H55.59C55.3501 24.925 55.0014 26.3291 54.547 27.7003L54.047 29.1873C54.022 29.2628 54.0059 29.3411 53.999 29.4203L53.123 39.9383C53.0921 40.2821 52.7885 40.5358 52.4446 40.505C52.1436 40.478 51.905 40.2393 51.878 39.9383L51.147 30.4303C51.0165 28.6872 49.4975 27.38 47.7545 27.5106C46.1994 27.6271 44.9609 28.859 44.836 30.4133C44.628 32.9473 44.256 37.5553 44.098 39.9363C44.076 40.2758 43.7829 40.5332 43.4434 40.5112C43.1369 40.4913 42.8918 40.2487 42.8689 39.9423L41.9999 29.4173C41.993 29.3381 41.9769 29.2598 41.9519 29.1843L41.4519 27.6973C40.998 26.327 40.6496 24.9238 40.4099 23.5003H45V24.5003C45 25.0527 45.4478 25.5003 46 25.5003ZM47 23.5003V21.5003H49V23.5003H47ZM38.444 28.3303C38.656 27.6963 38.831 27.0543 39 26.4093C39.169 27.0543 39.344 27.7003 39.556 28.3303L39.633 28.5623C39.2139 28.4933 38.7861 28.4933 38.367 28.5623L38.444 28.3303ZM25.243 15.5003C26.1035 15.4982 26.9291 15.8402 27.536 16.4503C28.898 17.8082 31.102 17.8082 32.464 16.4503C33.7305 15.184 35.7839 15.1841 37.0503 16.4506C37.658 17.0585 37.9996 17.8827 38 18.7423C38 19.6663 37.94 20.5853 37.851 21.5003H33V20.5003C33 19.9481 32.5522 19.5003 32 19.5003H28C27.4478 19.5003 27 19.9481 27 20.5003V21.5003H22.149C22.06 20.5853 22 19.6663 22 18.7423C22.0023 16.9525 23.453 15.5021 25.243 15.5003ZM28 25.5003H32C32.5522 25.5003 33 25.0526 33 24.5003V23.5003H37.59C37.3501 24.925 37.0014 26.3291 36.547 27.7003L36.047 29.1873C36.022 29.2628 36.0059 29.3411 35.999 29.4203L35.123 39.9383C35.0921 40.2821 34.7885 40.5358 34.4446 40.505C34.1436 40.478 33.905 40.2393 33.878 39.9383L33.147 30.4303C33.0165 28.6872 31.4975 27.38 29.7545 27.5106C28.1994 27.6271 26.9609 28.859 26.836 30.4133C26.628 32.9473 26.256 37.5553 26.098 39.9363C26.076 40.2758 25.7829 40.5332 25.4434 40.5112C25.1369 40.4913 24.8918 40.2487 24.869 39.9423L24 29.4173C23.9931 29.3381 23.977 29.2598 23.952 29.1843L23.453 27.7003C22.9986 26.3291 22.6499 24.925 22.41 23.5003H27V24.5003C27 25.0527 27.4478 25.5003 28 25.5003ZM29 23.5003V21.5003H31V23.5003H29ZM20.444 28.3303C20.656 27.7003 20.831 27.0543 21 26.4093C21.169 27.0543 21.344 27.6963 21.556 28.3303L21.692 28.7403C21.2345 28.6563 20.7655 28.6563 20.308 28.7403L20.444 28.3303ZM7.24425 15.5007C8.10388 15.5011 8.92813 15.8426 9.536 16.4505C10.898 17.8083 13.102 17.8083 14.464 16.4505C15.7305 15.1841 17.7839 15.1842 19.0502 16.4507C19.658 17.0586 19.9996 17.8828 20 18.7425C20 19.6665 19.94 20.5855 19.851 21.5005H15V20.5005C15 19.9482 14.5522 19.5005 14 19.5005H10C9.44775 19.5005 9 19.9482 9 20.5005V21.5005H4.149C4.06 20.5853 4 19.6663 4 18.7423C4.00075 16.9513 5.45325 15.5 7.24425 15.5007ZM10 25.5003H14C14.5522 25.5003 15 25.0526 15 24.5003V23.5003H19.59C19.3501 24.925 19.0014 26.3291 18.547 27.7003L18.047 29.1873C18.022 29.2628 18.0059 29.3411 17.999 29.4203L17.123 39.9383C17.0921 40.2821 16.7885 40.5358 16.4446 40.505C16.1435 40.478 15.905 40.2393 15.878 39.9383L15.147 30.4303C15.0165 28.6872 13.4975 27.38 11.7545 27.5106C10.1994 27.6271 8.96088 28.859 8.836 30.4133C8.628 32.9473 8.256 37.5553 8.098 39.9363C8.076 40.2758 7.78288 40.5332 7.44338 40.5112C7.13688 40.4913 6.89175 40.2487 6.869 39.9423L6 29.4173C5.99312 29.3381 5.977 29.2598 5.952 29.1843L5.452 27.6973C4.99813 26.327 4.64975 24.9238 4.41 23.5003H9V24.5003C9 25.0527 9.44775 25.5003 10 25.5003ZM11 23.5003V21.5003H13V23.5003H11ZM58 29.8473V44.5003H2V29.8473C2.57538 29.3055 3.47937 29.3265 4.029 29.8943L4.88 40.1003C4.9995 41.5402 6.26375 42.6105 7.7035 42.4908C8.99212 42.3838 10.0092 41.3513 10.097 40.0613C10.255 37.6933 10.626 33.0983 10.833 30.5683C10.8885 29.9267 11.4535 29.4516 12.0951 29.5071C12.6628 29.5562 13.1119 30.0083 13.157 30.5763L13.888 40.0843C14.0035 41.5295 15.2685 42.6075 16.7138 42.492C17.9925 42.3898 19.0101 41.3785 19.12 40.1003L19.873 31.0713C20.5336 30.5493 21.4664 30.5493 22.127 31.0713L22.88 40.1003C22.9995 41.5402 24.2636 42.6105 25.7035 42.4908C26.9921 42.3838 28.0093 41.3513 28.097 40.0613C28.255 37.6933 28.626 33.0983 28.833 30.5683C28.8885 29.9267 29.4535 29.4516 30.0951 29.5071C30.6629 29.5562 31.1119 30.0083 31.157 30.5763L31.888 40.0843C32.0035 41.5295 33.2686 42.6075 34.7137 42.492C35.9925 42.3898 37.01 41.3785 37.12 40.1003L37.888 30.8863C38.5434 30.3815 39.4566 30.3815 40.112 30.8863L40.88 40.1003C40.9995 41.5402 42.2637 42.6105 43.7035 42.4908C44.9921 42.3838 46.0093 41.3513 46.097 40.0613C46.255 37.6933 46.626 33.0983 46.833 30.5683C46.8885 29.9267 47.4535 29.4516 48.0951 29.5071C48.6629 29.5562 49.1119 30.0083 49.157 30.5763L49.888 40.0843C50.0035 41.5295 51.2686 42.6075 52.7137 42.492C53.9925 42.3898 55.01 41.3785 55.12 40.1003L55.971 29.8933C56.521 29.3257 57.4249 29.3052 58 29.8473Z" fill="#565656"/>
</svg>
