<svg width="60" height="60" viewBox="0 0 60 60" fill="none" xmlns="http://www.w3.org/2000/svg">
<path d="M59.2726 36.0391L49.5732 33.2683C48.1519 32.8622 46.6336 32.9629 45.2784 33.5533C45.6184 32.4623 45.9294 31.3534 46.1734 30.2114C46.2893 29.6715 45.9456 29.1397 45.4056 29.0238C45.3379 29.0091 45.2687 29.0018 45.1994 29.0015H41.7806L40.3487 23.2728C40.0142 21.9378 38.8141 21.0016 37.4378 21.002H22.5627C21.186 21.0017 19.986 21.9384 19.6518 23.2738L18.2199 29.0015H14.8011C14.2489 29.0014 13.8011 29.4489 13.8009 30.0012C13.8009 30.0718 13.8084 30.1423 13.8232 30.2114C14.0672 31.3524 14.3781 32.4633 14.7231 33.5543C13.3665 32.9632 11.8464 32.862 10.4234 33.2683L0.723913 36.0391C0.295813 36.163 0.00132915 36.5553 0.00195412 37.0011V58.9998C0.00195412 59.5521 0.449679 59.9998 1.0019 59.9998H58.9986C59.5509 59.9998 59.9986 59.5521 59.9986 58.9998V37.0011C59.9987 36.5542 59.7023 36.1615 59.2726 36.0391ZM19.0009 31.0014C19.4599 31.0013 19.8597 30.6888 19.9708 30.2434L21.5917 23.7598C21.7029 23.3142 22.1033 23.0015 22.5627 23.0018H37.4378C37.8968 23.0013 38.2973 23.3136 38.4088 23.7588L39.7197 29.0015H22.0007V31.0014H43.9375C43.6199 32.2778 43.23 33.5351 42.7695 34.7672L42.0626 36.6491C42.0272 36.7454 42.0066 36.8466 42.0016 36.9491L41.1756 51.8132C41.1034 53.094 40.0066 54.0739 38.7258 54.0017C38.6383 53.9969 38.5512 53.987 38.4648 53.9721C37.4443 53.7618 36.6716 52.9243 36.5439 51.8902L34.435 37.819C34.25 36.6031 33.5754 35.5159 32.5681 34.8102C31.8179 34.2823 30.9226 33.9997 30.0053 34.0012C29.6914 34.003 29.3784 34.0365 29.0713 34.1012C27.2078 34.5244 25.8028 36.0602 25.5465 37.954L23.4356 52.0232C23.2518 53.2577 22.124 54.1251 20.8838 53.9861C19.7182 53.8056 18.8478 52.8183 18.8149 51.6392L18.0009 36.9451C17.9959 36.8426 17.9753 36.7414 17.9399 36.6451L17.233 34.7642C16.7721 33.533 16.3815 32.2768 16.0631 31.0014H19.0009ZM57.9987 57.9999H2.00184V37.755L10.9763 35.1912C12.9427 34.6328 15.034 35.5083 16.0161 37.301L16.816 51.7502C16.8516 54.1125 18.7803 56.0069 21.1428 56C23.282 56.0024 25.0995 54.4362 25.4135 52.3202L27.5244 38.246C27.6542 37.181 28.4306 36.3081 29.4733 36.0551C30.816 35.7659 32.1389 36.6198 32.4281 37.9625C32.4391 38.0134 32.4484 38.0645 32.4561 38.116L34.565 52.1832C34.8279 54.0746 36.2685 55.5871 38.1448 55.942C40.4984 56.3356 42.7254 54.7467 43.119 52.3931C43.1451 52.2366 43.1628 52.0787 43.1715 51.9202L43.9845 37.301C44.9672 35.5089 47.0578 34.6336 49.0242 35.1912L57.9987 37.755V57.9999Z" fill="#565656"/>
<path d="M38.5302 0.00473738C37.3849 0.00486237 36.2516 0.237474 35.1987 0.688324C31.8789 2.10424 28.1251 2.10424 24.8053 0.688324C20.5083 -1.1557 15.5301 0.832941 13.6861 5.12995C13.2332 6.18527 12.9998 7.32158 13 8.46989C13.0031 11.0722 13.2799 13.667 13.826 16.2115C13.9242 16.6713 14.3297 17.0005 14.7999 17.0024H45.1982C45.6699 17.0024 46.0775 16.6728 46.1761 16.2115C46.7209 13.6668 46.9963 11.0721 46.9981 8.46989C46.9973 3.7939 43.2062 0.00398742 38.5302 0.00473738ZM44.3762 15.0025H15.6219C15.2104 12.8493 15.0021 10.6621 14.9999 8.46989C15.0015 4.89684 17.8995 2.00163 21.4725 2.00325C22.3467 2.00362 23.2117 2.18124 24.0154 2.52522C27.8378 4.15613 32.1603 4.15613 35.9827 2.52522C39.2675 1.11917 43.0702 2.64221 44.4762 5.92703C44.8202 6.73073 44.9978 7.59569 44.9982 8.46989C44.9961 10.6621 44.7878 12.8493 44.3762 15.0025Z" fill="#565656"/>
<path d="M20.4998 4.13477C18.3914 5.25183 17.0525 7.42208 17 9.80745V11.0024H18.9999V9.80245C19.0599 8.13467 20.0158 6.62925 21.4997 5.86567L20.4998 4.13477Z" fill="#565656"/>
</svg>
