<svg width="60" height="60" viewBox="0 0 60 60" fill="none" xmlns="http://www.w3.org/2000/svg">
<g clip-path="url(#clip0)">
<path d="M59.1017 33.3759L48.5117 30.3735C47.4409 30.0728 46.3016 30.1265 45.2638 30.5266L45.8603 29.1467L47.96 26.9416C50.6336 24.1266 52.6188 20.7305 53.76 17.0197C55.254 12.1368 52.5069 6.96734 47.6239 5.47321C46.4298 5.10785 45.1742 4.98818 43.9326 5.1214C40.4717 5.48688 37.0115 4.42647 34.3497 2.1846C30.4498 -1.1116 24.6161 -0.622342 21.3199 3.27769C20.5136 4.23161 19.9089 5.33912 19.5424 6.53313C18.409 10.2466 18.1514 14.1723 18.7898 18.002L19.2939 21.0054L17.1425 32.3977C15.8828 30.5844 13.6106 29.7713 11.4866 30.3735L0.896595 33.3759C0.468975 33.4973 0.173828 33.8878 0.173828 34.3323V59.0058C0.173828 59.5549 0.618971 60 1.16801 60H58.8303C59.3794 60 59.8245 59.5549 59.8245 59.0058V34.3323C59.8245 33.8878 59.5294 33.4973 59.1017 33.3759ZM18.409 36.4032L21.2802 21.2002C21.3006 21.0848 21.3006 20.9667 21.2802 20.8513L20.7463 17.6699C20.1599 14.1443 20.3981 10.5308 21.4423 7.11273C22.6193 3.2813 26.6795 1.1294 30.511 2.30638C31.4474 2.59407 32.316 3.06829 33.0642 3.70072C36.1417 6.29477 40.1438 7.52196 44.1463 7.09882C48.1316 6.67107 51.7091 9.55506 52.1369 13.5403C52.2415 14.5146 52.1477 15.5001 51.8611 16.4371C50.8095 19.8526 48.9816 22.9784 46.5204 25.5696L44.2984 27.903C44.2173 27.9875 44.152 28.0858 44.1056 28.1933L37.9665 42.3951C37.5637 43.3258 36.4827 43.7538 35.5519 43.3509C34.7887 43.0206 34.3427 42.2185 34.465 41.396L36.6373 26.871C36.9514 24.6915 35.6366 22.6065 33.5345 21.9508C33.1174 21.8225 32.6833 21.7575 32.247 21.758C30.5278 21.7591 28.9601 22.7415 28.2096 24.2881L21.8698 37.5366C21.4321 38.4513 20.3356 38.8381 19.4209 38.4004C18.6698 38.041 18.2544 37.2213 18.409 36.4032ZM33.6379 33.4833C31.1933 34.3026 28.5319 34.1882 26.1666 33.1622L29.9992 25.1461C30.5836 23.9137 32.0564 23.3885 33.2887 23.973C34.274 24.4403 34.8362 25.4987 34.6718 26.5767V26.5718L33.6379 33.4833ZM18.069 39.8938C19.7773 41.0917 22.1334 40.678 23.3312 38.9697C23.4586 38.7881 23.5697 38.5956 23.6633 38.3945L25.3106 34.9467C27.8217 36.083 30.6453 36.3284 33.3147 35.6427L32.4985 41.0977C32.1862 43.1867 33.6267 45.1335 35.7157 45.4457C37.4308 45.7021 39.1037 44.7724 39.7918 43.1805L41.9293 38.2404V50.9391C41.9088 52.6845 40.4772 54.0827 38.7318 54.0622C37.4612 54.0472 36.3231 53.2728 35.8429 52.0963L33.6478 46.6492C32.8281 44.6341 30.5301 43.6651 28.515 44.4848C27.5311 44.8849 26.7507 45.6655 26.3505 46.6492L24.1554 52.0973C23.4956 53.7133 21.6508 54.4885 20.0348 53.8289C18.858 53.3486 18.0836 52.21 18.069 50.9391V39.8938ZM57.8361 58.0117H2.16218V35.0839L12.0294 32.2853C13.4963 31.8663 15.0546 32.5452 15.7466 33.9048C15.9656 34.3408 16.0799 34.8217 16.0807 35.3096V50.9391C16.1001 53.7827 18.421 56.072 21.2646 56.0526C23.347 56.0383 25.2157 54.7713 25.9996 52.8419L28.1947 47.3948C28.6038 46.3983 29.7434 45.9221 30.74 46.3312C31.2225 46.5293 31.6055 46.9123 31.8036 47.3948L33.9987 52.8419C35.0691 55.4764 38.0725 56.7445 40.707 55.6741C42.6363 54.8903 43.9035 53.0215 43.9177 50.9391V35.3096C43.9184 34.8217 44.0327 34.3408 44.2517 33.9048C44.9438 32.5452 46.502 31.8663 47.9689 32.2853L57.8361 35.0839V58.0117Z" fill="#565656"/>
<path d="M27.824 4.77734C25.3587 5.51217 23.4252 7.43292 22.6742 9.89338L22.2676 11.2186L24.1684 11.8012L24.5751 10.476C25.1319 8.65141 26.5655 7.22712 28.3937 6.68219L27.824 4.77734Z" fill="#565656"/>
</g>
<defs>
<clipPath id="clip0">
<rect width="60" height="60" fill="white"/>
</clipPath>
</defs>
</svg>
