<svg width="80" height="80" viewBox="0 0 80 80" fill="none" xmlns="http://www.w3.org/2000/svg">
<g clip-path="url(#clip0)">
<path d="M73.3326 5.33323H61.3328C61.3328 2.38779 58.945 0 55.9995 0C53.0541 0 50.6663 2.38779 50.6663 5.33323H38.6665C34.9866 5.33757 32.0043 8.31985 32 11.9998V21.2223H34.6666V11.9998C34.6666 9.79065 36.4574 7.99985 38.6665 7.99985H46.0757L45.0758 10.6665H38.6665C37.9302 10.6665 37.3332 11.2635 37.3332 11.9998V21.2223H39.9999V13.3331H44.0758L42.7505 16.8637C42.4913 17.5528 42.8398 18.3218 43.5291 18.581C43.6796 18.6377 43.8389 18.6665 43.9998 18.6663H67.9993C68.7356 18.667 69.3333 18.0707 69.334 17.3343C69.3341 17.1737 69.3053 17.0142 69.2486 16.8637L67.9233 13.3331H71.9992V53.3323H62.6661C61.9298 53.3323 61.3328 53.9293 61.3328 54.6656V63.9988H43.9998V66.6654H73.3326C74.0689 66.6654 74.6659 66.0684 74.6659 65.3321V11.9998C74.6659 11.2635 74.0689 10.6665 73.3326 10.6665H66.9233L65.9234 7.99985H73.3326C75.5417 7.99985 77.3325 9.79065 77.3325 11.9998V65.3321C77.3325 67.5412 75.5417 69.332 73.3326 69.332H43.9998V71.9987H73.3326C77.0125 71.9943 79.9948 69.012 79.9991 65.3321V11.9998C79.9946 8.31985 77.0125 5.33757 73.3326 5.33323ZM63.9994 55.999H70.1139L63.9994 62.1135V55.999ZM71.9992 63.9988H65.8847L71.9992 57.8843V63.9988ZM66.0754 15.9997H45.9237L48.9237 7.99985H51.9996C52.7359 7.99985 53.3329 7.40286 53.3329 6.66654V5.33323C53.3329 3.86043 54.5267 2.66662 55.9995 2.66662C57.4724 2.66662 58.6662 3.86043 58.6662 5.33323V6.66654C58.6662 7.40286 59.2632 7.99985 59.9995 7.99985H63.0754L66.0754 15.9997Z" fill="#565656"/>
<path d="M35.5927 24.0072C33.9179 24.008 32.2606 24.3483 30.7208 25.0072C26.427 26.8378 21.5723 26.8378 17.2783 25.0072C10.9825 22.3127 3.69443 25.2325 0.999981 31.5284C0.340994 33.0682 0.000833318 34.7255 0 36.4003C0.00699987 41.6057 1.21914 46.7386 3.54127 51.3973L5.36657 55.0506L7.63319 75.4369C7.94568 78.2523 10.4815 80.2815 13.2969 79.969C15.6089 79.7123 17.4587 77.932 17.8037 75.6316L20.7249 56.1533C20.9938 54.3448 22.6779 53.0966 24.4864 53.3655C25.9278 53.5798 27.0598 54.7116 27.2742 56.1533L30.1954 75.6316C30.6154 78.433 33.227 80.3636 36.0285 79.9436C38.3289 79.5988 40.1092 77.7489 40.3659 75.4369L42.6325 55.0506L44.4578 51.3973C46.78 46.7386 47.9921 41.6057 47.9991 36.4003C47.9954 29.5521 42.4409 24.0035 35.5927 24.0072ZM42.0725 50.204L40.1392 54.0706C40.0694 54.2116 40.0243 54.3636 40.0059 54.5199L37.7153 75.1422C37.5673 76.4935 36.3518 77.4689 35.0005 77.3207C33.8884 77.1989 32.9984 76.3422 32.834 75.2356L29.9128 55.7573C29.4209 52.4915 26.3748 50.2427 23.1091 50.7345C20.5141 51.1253 18.477 53.1623 18.0863 55.7573L15.165 75.2356C14.9654 76.5802 13.7136 77.5084 12.3689 77.3087C11.2623 77.1444 10.4056 76.2544 10.2838 75.1422L7.99185 54.5199C7.97335 54.3636 7.92835 54.2116 7.85852 54.0706L5.92522 50.204C3.7881 45.9159 2.67262 41.1914 2.66662 36.4003C2.66762 31.0249 7.02604 26.668 12.4014 26.6688C13.7172 26.669 15.0192 26.9361 16.229 27.4538C21.1931 29.5711 26.806 29.5711 31.7701 27.4538C36.712 25.339 42.4327 27.6308 44.5475 32.5727C45.0652 33.7823 45.3321 35.0845 45.3325 36.4003C45.326 41.1915 44.2102 45.9161 42.0725 50.204Z" fill="#565656"/>
<path d="M9.92724 29.5566C7.05463 31.4669 5.33016 34.6894 5.33399 38.1391V39.9991H8.00061V38.1391C7.99778 35.581 9.27692 33.1916 11.4072 31.7753L9.92724 29.5566Z" fill="#565656"/>
<path d="M67.999 32H50.666V34.6666H67.999V32Z" fill="#565656"/>
<path d="M67.999 40H50.666V42.6666H67.999V40Z" fill="#565656"/>
<path d="M67.999 48H50.666V50.6666H67.999V48Z" fill="#565656"/>
<path d="M67.9989 24H46.666V26.6666H67.9989V24Z" fill="#565656"/>
<path d="M58.6659 56H50.666V58.6666H58.6659V56Z" fill="#565656"/>
</g>
<defs>
<clipPath id="clip0">
<rect width="80" height="80" fill="white"/>
</clipPath>
</defs>
</svg>
