<svg width="60" height="60" viewBox="0 0 60 60" fill="none" xmlns="http://www.w3.org/2000/svg">
<g clip-path="url(#clip0)">
<path d="M59.274 36.039L49.574 33.267C48.1594 32.8622 46.6483 32.9605 45.298 33.545C46.4263 29.9606 47.0001 26.2247 47 22.467C46.9904 18.0213 43.5515 14.3364 39.117 14.02L38.98 16.02C42.3649 16.2619 44.9902 19.0735 45 22.467C45.0026 26.6677 44.2472 30.8345 42.77 34.767L42.063 36.65C42.0272 36.7462 42.0067 36.8475 42.002 36.95L41.176 51.815C41.1237 52.6801 40.5929 53.4437 39.8 53.794L39.015 33.386L39.024 33.361C40.3325 29.8781 41.002 26.1876 41 22.467C40.9984 21.1053 39.8948 20.0016 38.533 20V22C38.7909 22 39 22.2091 39 22.467C39.0016 25.4534 38.5405 28.4219 37.633 31.267C33.6156 27.0514 26.9415 26.8907 22.7259 30.9081C22.6034 31.0249 22.4838 31.1445 22.367 31.267C21.4596 28.4219 20.9985 25.4534 21 22.467C21.0089 22.2031 21.23 21.9965 21.4939 22.0054C21.5481 22.0073 21.6015 22.0183 21.652 22.038C24.289 23.1714 27.1297 23.7544 30 23.751C31.053 23.7511 32.1045 23.6736 33.146 23.519L32.852 21.541C29.3235 22.065 25.7188 21.6009 22.438 20.2C21.1855 19.6638 19.7354 20.2444 19.1991 21.4969C19.0679 21.8035 19.0001 22.1335 19 22.467C18.998 26.1876 19.6675 29.8781 20.976 33.361L20.985 33.386L20.2 53.794C19.4054 53.4427 18.874 52.6764 18.824 51.809L18 36.944C17.9953 36.8415 17.9747 36.7402 17.939 36.644L17.232 34.761C15.7549 30.8305 14.9987 26.6659 15 22.467C15.0005 18.8949 17.8967 15.9995 21.469 16C22.3446 16.0001 23.2111 16.1781 24.016 16.523C26.8963 17.7654 30.0919 18.0799 33.159 17.423L32.743 15.467C30.0798 16.0376 27.3049 15.7658 24.803 14.689C20.5051 12.8466 15.5274 14.8371 13.6849 19.1351C13.2335 20.188 13.0005 21.3215 13 22.467C12.9991 26.2247 13.5724 29.9605 14.7 33.545C13.3497 32.9605 11.8386 32.8622 10.424 33.267L0.724 36.039C0.295375 36.1621 0.000125 36.5541 0 37V59C0 59.5522 0.44775 60 1 60H59C59.5522 60 60 59.5522 60 59V37C59.9996 36.5535 59.7034 36.1614 59.274 36.039ZM20.038 58H2V37.754L10.975 35.19C12.9415 34.6312 15.0331 35.5069 16.015 37.3L16.828 51.92C16.937 53.8162 18.2738 55.4179 20.12 55.864L20.038 58ZM22.97 33.721C24.5431 31.3825 27.1816 29.9859 30 30C32.8172 29.987 35.4545 31.3834 37.027 33.721L37.8 53.73C37.1405 53.3906 36.6828 52.7567 36.568 52.024L34.438 37.818C34.0691 35.3686 31.7845 33.682 29.3351 34.0509C27.3889 34.344 25.861 35.8717 25.568 37.818L23.438 52.024C23.3219 52.758 22.8618 53.3921 22.2 53.73L22.97 33.721ZM22.039 58L22.121 55.872C23.8376 55.4666 25.1385 54.0634 25.413 52.321L27.544 38.115C27.7456 36.7586 29.0088 35.8225 30.3651 36.0241C31.4463 36.1849 32.2952 37.0337 32.456 38.115L34.587 52.315C34.8611 54.0577 36.1621 55.4615 37.879 55.867L37.961 58H22.039ZM58 58H39.962L39.88 55.864C41.7262 55.4179 43.063 53.8162 43.172 51.92L43.985 37.3C44.9666 35.5066 47.0585 34.6309 49.025 35.19L58 37.754V58Z" fill="#565656"/>
<path d="M59 3H41V1C41 0.44775 40.5523 0 40 0H32C31.4478 0 31 0.44775 31 1V11C31 11.5522 31.4478 12 32 12H35V27H37V12H40C40.5523 12 41 11.5522 41 11V9H59C59.5523 9 60 8.55225 60 8V4C60 3.44775 59.5523 3 59 3ZM39 10H33V2H39V10ZM58 7H41V5H58V7Z" fill="#565656"/>
</g>
<defs>
<clipPath id="clip0">
<rect width="60" height="60" fill="white"/>
</clipPath>
</defs>
</svg>
