<svg width="60" height="60" viewBox="0 0 60 60" fill="none" xmlns="http://www.w3.org/2000/svg">
<g clip-path="url(#clip0)">
<path d="M38.7 4.55783e-06C37.4409 -0.00124544 36.1947 0.254629 35.038 0.752005C31.8176 2.125 28.1765 2.125 24.956 0.752005C20.2332 -1.26712 14.7679 0.924505 12.7487 5.64725C12.2551 6.80175 12.0005 8.04438 12 9.3C12.0045 13.1749 12.8995 16.997 14.616 20.471L16.041 25.287C16.1679 25.7105 16.5579 26.0005 17 26H20V31C20 31.5523 20.4478 32 21 32H24V34.327L21.11 34.006L20.89 35.994L24 36.34V40.327L21.11 40.006L20.89 41.994L24 42.34V46.327L21.11 46.006L20.89 47.994L24 48.34V52.327L21.11 52.006L20.89 53.994L24.067 54.347C24.067 54.355 24.067 54.363 24.067 54.371L26.067 59.371C26.2194 59.7524 26.5894 60.0018 27 60H33C33.4093 60.0001 33.7773 59.751 33.929 59.371L35.429 55.61L38.886 55.994L39.106 54.006L36 53.66V49.673L38.89 49.994L39.11 48.006L36 47.66V43.673L38.89 43.994L39.11 42.006L36 41.66V37.673L38.89 37.994L39.11 36.006L36 35.66V32H39C39.5522 32 40 31.5523 40 31V26H43C43.443 26.0001 43.8333 25.7088 43.959 25.284L45.384 20.468C47.1 16.9949 47.9951 13.1739 48 9.3C47.9961 4.16538 43.8346 0.00387956 38.7 4.55783e-06ZM32.32 58H27.677L26.316 54.6L33.371 55.384L32.32 58ZM34 53.438L26 52.549V48.562L34 49.451V53.438ZM34 47.438L26 46.549V42.562L34 43.451V47.438ZM34 41.438L26 40.549V36.562L34 37.451V41.438ZM34 35.438L26 34.549V32H34V35.438ZM38 30H22V26H38V30ZM43.555 19.653C43.529 19.7054 43.5076 19.7599 43.491 19.816L42.253 24H17.747L16.509 19.816C16.4924 19.7599 16.471 19.7054 16.445 19.653C14.8414 16.4371 14.0045 12.8935 14 9.3C14.001 5.26838 17.27 2.00075 21.3018 2.00175C22.2881 2.002 23.2641 2.20213 24.171 2.59C27.8944 4.178 32.1046 4.178 35.828 2.59C39.5345 1.00388 43.8251 2.72275 45.4113 6.42925C45.7995 7.3365 45.9997 8.31313 46 9.3C45.9955 12.8935 45.1586 16.4371 43.555 19.653Z" fill="#565656"/>
<path d="M19.5 4.13281C17.3915 5.24994 16.0525 7.42031 16 9.80581V11.0008H18V9.80081C18.0595 8.13281 19.0156 6.62706 20.5 5.86381L19.5 4.13281Z" fill="#565656"/>
</g>
<defs>
<clipPath id="clip0">
<rect width="60" height="60" fill="white"/>
</clipPath>
</defs>
</svg>
