<svg width="80" height="80" viewBox="0 0 80 80" fill="none" xmlns="http://www.w3.org/2000/svg">
<g clip-path="url(#clip0)">
<path d="M35.5927 24.0072C33.9179 24.008 32.2606 24.3483 30.7208 25.0072C26.427 26.8378 21.5723 26.8378 17.2783 25.0072C10.9825 22.3127 3.69443 25.2325 0.999981 31.5284C0.340994 33.0682 0.000833318 34.7255 0 36.4003C0.00699987 41.6057 1.21914 46.7386 3.54127 51.3973L5.36657 55.0506L7.63319 75.4369C7.94568 78.2523 10.4815 80.2815 13.2969 79.969C15.6089 79.7123 17.4587 77.932 17.8037 75.6316L20.7249 56.1533C20.9938 54.3448 22.6779 53.0966 24.4864 53.3655C25.9278 53.5798 27.0598 54.7116 27.2742 56.1533L30.1954 75.6316C30.6154 78.433 33.227 80.3636 36.0285 79.9436C38.3289 79.5988 40.1092 77.7489 40.3659 75.4369L41.6379 63.9998L38.9859 63.7051L37.7153 75.1462C37.5673 76.4975 36.3518 77.4729 35.0005 77.3247C33.8884 77.2029 32.9984 76.3462 32.834 75.2396L29.9128 55.7573C29.4209 52.4915 26.3748 50.2427 23.1091 50.7345C20.5141 51.1253 18.477 53.1623 18.0863 55.7573L15.165 75.2356C14.9654 76.5802 13.7136 77.5084 12.3689 77.3087C11.2623 77.1444 10.4056 76.2544 10.2838 75.1422L7.99185 54.5199C7.97335 54.3636 7.92835 54.2116 7.85852 54.0706L5.92522 50.204C3.7881 45.9159 2.67262 41.1914 2.66662 36.4003C2.66762 31.0249 7.02604 26.668 12.4014 26.6688C13.7172 26.669 15.0192 26.9361 16.229 27.4538C21.1931 29.5711 26.806 29.5711 31.7701 27.4538C36.712 25.339 42.4327 27.6308 44.5475 32.5727C45.0652 33.7823 45.3321 35.0845 45.3325 36.4003C45.3266 41.1929 44.2108 45.9189 42.0725 50.208L40.1326 54.0706C40.0627 54.2116 40.0177 54.3636 39.9992 54.5199L39.8406 55.9466L42.4912 56.2412L42.6245 55.0506L44.4498 51.3973C46.7748 46.7393 47.9896 41.6062 47.9991 36.4003C47.9954 29.5521 42.4409 24.0035 35.5927 24.0072Z" fill="#565656"/>
<path d="M78.667 0H72.0005V2.66662H77.3337V14.6664C77.3337 22.7664 70.7674 29.3328 62.6673 29.3328C54.5673 29.3328 48.001 22.7664 48.001 14.6664V2.66662H53.3342V0H46.6676C45.9313 0 45.3343 0.596989 45.3343 1.33331V14.6664C45.3488 23.7134 52.3144 31.2297 61.334 31.9314V54.6656C61.334 56.8748 59.5432 58.6656 57.3341 58.6656H40.0011C37.792 58.6656 36.0012 56.8748 36.0012 54.6656V43.8658C39.6086 43.1295 41.9361 39.6081 41.1997 36.0007C40.4634 32.3932 36.942 30.0658 33.3346 30.8021C29.7271 31.5384 27.3997 35.0598 28.136 38.6673C28.6705 41.2854 30.7164 43.3314 33.3346 43.8658V54.6656C33.3389 58.3456 36.3212 61.3279 40.0011 61.3322H57.3341C61.014 61.3279 63.9963 58.3456 64.0006 54.6656V31.9314C73.0203 31.2297 79.9859 23.7134 80.0004 14.6664V1.33331C80.0004 0.596989 79.4034 0 78.667 0ZM33.3346 37.3326V41.0872C31.7421 40.5242 30.6749 39.0216 30.6679 37.3326C30.6588 35.1235 32.4422 33.3254 34.6512 33.3162C36.8603 33.307 38.6585 35.0905 38.6676 37.2995C38.6746 39.0006 37.605 40.5201 36.001 41.0872V37.3326H33.3346Z" fill="#565656"/>
<path d="M9.92724 29.5566C7.05463 31.4669 5.33016 34.6894 5.33399 38.1391V39.9991H8.00061V38.1391C7.99778 35.581 9.27692 33.1916 11.4072 31.7753L9.92724 29.5566Z" fill="#565656"/>
</g>
<defs>
<clipPath id="clip0">
<rect width="80" height="80" fill="white"/>
</clipPath>
</defs>
</svg>
