<svg width="80" height="80" viewBox="0 0 80 80" fill="none" xmlns="http://www.w3.org/2000/svg">
<g clip-path="url(#clip0)">
<path d="M61.1213 50.4387L49.1547 47.176C49.0973 47.16 49.039 47.148 48.98 47.14C47.6572 46.9602 46.6698 45.8323 46.6667 44.4973V40.8627C50.7865 38.484 53.327 34.0905 53.3333 29.3333C56.2788 29.3333 58.6667 26.9455 58.6667 24C58.6623 22.7128 58.1882 21.4717 57.3333 20.5093V13.8667C57.3225 10.5915 55.6042 7.559 52.8 5.86667L50.6053 4.54933C50.2143 1.938 47.9737 0.00450004 45.3333 3.48882e-08H28C27.2637 -0.000166632 26.6665 0.596833 26.6665 1.33317C26.6665 1.59667 26.7445 1.85417 26.8907 2.07333L28.7813 4.90933L27.2 5.86667C24.3958 7.559 22.6775 10.5915 22.6667 13.8667V20.5133C21.8127 21.4745 21.3387 22.7142 21.3333 24C21.3333 26.9455 23.7212 29.3333 26.6667 29.3333C26.673 34.0905 29.2135 38.484 33.3333 40.8627V44.4973C33.3302 45.8322 32.3428 46.9602 31.02 47.14C30.961 47.148 30.9027 47.16 30.8453 47.176L18.8787 50.4387C14.8213 51.5518 12.0067 55.2368 12 59.444V80H14.6667V68H21.3333V80H24V61.3333H21.3333V65.3333H14.6667V59.444C14.6722 56.4392 16.6825 53.8075 19.58 53.012L31.4467 49.7747L38.6667 63.0067V80H41.3333V63.0067L48.5507 49.7747L60.4173 53.012C63.316 53.8065 65.3275 56.4385 65.3333 59.444V65.3333H58.6667V61.3333H56V80H58.6667V68H65.3333V80H68V59.444C67.9933 55.2368 65.1787 51.5518 61.1213 50.4387ZM50.6667 26.6667H29.3333V20.216L31.628 13.3333H48.372L50.6667 20.216V26.6667ZM56 24C56 25.4728 54.8062 26.6667 53.3333 26.6667V21.3333C54.8062 21.3333 56 22.5272 56 24ZM26.6667 26.6667C25.1938 26.6667 24 25.4728 24 24C24 22.5272 25.1938 21.3333 26.6667 21.3333V26.6667ZM26.6667 18.6667C26.216 18.6723 25.7678 18.736 25.3333 18.856V13.8667C25.3392 11.525 26.5663 9.35617 28.5707 8.14533L31.3533 6.476C31.9845 6.09683 32.1888 5.27767 31.8097 4.6465C31.7988 4.6285 31.7877 4.61083 31.776 4.59333L30.4907 2.66667H45.3333C46.8062 2.66667 48 3.8605 48 5.33333C48.0002 5.80133 48.2455 6.235 48.6467 6.476L51.4293 8.14533C53.4337 9.35617 54.6608 11.525 54.6667 13.8667V18.86C54.2323 18.7385 53.7842 18.6737 53.3333 18.6667H52.96L50.5973 11.5787C50.416 11.0343 49.907 10.6672 49.3333 10.6667H30.6667C30.093 10.6672 29.584 11.0343 29.4027 11.5787L27.04 18.6667H26.6667ZM29.3333 29.3333H50.6667C50.6667 35.2243 45.891 40 40 40C34.109 40 29.3333 35.2243 29.3333 29.3333ZM40 59.8827L33.908 48.7133C35.2212 47.7083 35.994 46.151 36 44.4973V42.052C37.2942 42.4595 38.6432 42.6668 40 42.6667C41.3568 42.6668 42.7058 42.4595 44 42.052V44.4973C44.006 46.151 44.7788 47.7083 46.092 48.7133L40 59.8827Z" fill="#565656"/>
<path d="M34.6667 25.3333C36.1394 25.3333 37.3333 24.1394 37.3333 22.6667C37.3333 21.1939 36.1394 20 34.6667 20C33.1939 20 32 21.1939 32 22.6667C32 24.1394 33.1939 25.3333 34.6667 25.3333Z" fill="#565656"/>
<path d="M45.3327 25.3333C46.8054 25.3333 47.9994 24.1394 47.9994 22.6667C47.9994 21.1939 46.8054 20 45.3327 20C43.8599 20 42.666 21.1939 42.666 22.6667C42.666 24.1394 43.8599 25.3333 45.3327 25.3333Z" fill="#565656"/>
<path d="M53.3333 68H44V70.6667H53.3333V68Z" fill="#565656"/>
</g>
<defs>
<clipPath id="clip0">
<rect width="80" height="80" fill="white"/>
</clipPath>
</defs>
</svg>
