<svg width="14" height="18" viewBox="0 0 14 18" fill="none" xmlns="http://www.w3.org/2000/svg">
<path d="M6.99939 0C3.40484 0 0.480469 2.92437 0.480469 6.51888C0.480469 10.9798 6.31426 17.5287 6.56264 17.8053C6.79594 18.0651 7.20326 18.0647 7.43613 17.8053C7.68451 17.5287 13.5183 10.9798 13.5183 6.51888C13.5182 2.92437 10.5939 0 6.99939 0ZM6.99939 9.79871C5.19088 9.79871 3.71959 8.32739 3.71959 6.51888C3.71959 4.71037 5.19091 3.23909 6.99939 3.23909C8.80786 3.23909 10.2791 4.71041 10.2791 6.51892C10.2791 8.32743 8.80786 9.79871 6.99939 9.79871Z" fill="#565656"/>
</svg>
