<svg width="20" height="40" viewBox="0 0 20 40" fill="none" xmlns="http://www.w3.org/2000/svg">
<path d="M0.000804901 35.8334V39.1667C0.000804901 39.5068 0.207523 39.8136 0.523298 39.9398C0.624157 39.9805 0.729935 40 0.834074 40C1.05704 40 1.27516 39.9105 1.43625 39.7428L19.7693 20.5765C20.0769 20.2542 20.0769 19.7464 19.7693 19.4242L1.43625 0.257809C1.20024 0.0120316 0.838919 -0.0677338 0.523142 0.0608597C0.207367 0.187031 0.000650406 0.49382 0.000650406 0.833973V4.16728C0.000650406 4.38048 0.0820541 4.58556 0.228537 4.74016L14.6864 20.0003L0.228615 35.2605C0.0821323 35.4151 0.000804901 35.6201 0.000804901 35.8334Z" fill="#565656"/>
</svg>
