<svg width="20" height="40" viewBox="0 0 20 40" fill="none" xmlns="http://www.w3.org/2000/svg">
<path d="M19.9992 35.8334V39.1667C19.9992 39.5068 19.7925 39.8136 19.4767 39.9398C19.3758 39.9805 19.2701 40 19.1659 40C18.943 40 18.7248 39.9105 18.5637 39.7428L0.23068 20.5765C-0.0768933 20.2542 -0.0768933 19.7464 0.23068 19.4242L18.5637 0.257809C18.7998 0.0120316 19.1611 -0.0677338 19.4769 0.0608597C19.7926 0.187031 19.9993 0.49382 19.9993 0.833973V4.16728C19.9993 4.38048 19.9179 4.58556 19.7715 4.74016L5.31357 20.0003L19.7714 35.2605C19.9179 35.4151 19.9992 35.6201 19.9992 35.8334Z" fill="#565656"/>
</svg>
