<svg width="25" height="25" viewBox="0 0 25 25" fill="none" xmlns="http://www.w3.org/2000/svg">
<circle cx="12.5" cy="12.5" r="12.5" fill="#C1DAFF"/>
<path d="M10.13 11.1953C9.58515 10.5713 8.63758 10.507 8.01351 11.0518C7.38945 11.5967 7.3252 12.5442 7.87002 13.1683L10.13 11.1953ZM12.3333 16L11.2034 16.9865C11.5106 17.3384 11.9643 17.5271 12.4305 17.4968C12.8968 17.4666 13.3223 17.2208 13.5814 16.8321L12.3333 16ZM18.2481 9.83205C18.7076 9.14276 18.5213 8.21145 17.8321 7.75192C17.1428 7.2924 16.2115 7.47866 15.7519 8.16795L18.2481 9.83205ZM7.87002 13.1683L11.2034 16.9865L13.4633 15.0135L10.13 11.1953L7.87002 13.1683ZM13.5814 16.8321L18.2481 9.83205L15.7519 8.16795L11.0853 15.168L13.5814 16.8321Z" fill="white"/>
</svg>
