<svg width="16" height="16" viewBox="0 0 16 16" fill="none" xmlns="http://www.w3.org/2000/svg">
<path d="M1.81631 7.53488C1.49731 7.08404 0.873229 6.97717 0.422392 7.29617C-0.0284462 7.61518 -0.135318 8.23926 0.183686 8.6901L1.81631 7.53488ZM5.53679 14.5242L4.72047 15.1018C4.90673 15.365 5.20848 15.5223 5.53094 15.5242C5.85339 15.526 6.15697 15.3723 6.34629 15.1113L5.53679 14.5242ZM15.8095 2.06368C16.1338 1.61661 16.0342 0.991317 15.5871 0.667061C15.14 0.342805 14.5148 0.442369 14.1905 0.889444L15.8095 2.06368ZM0.183686 8.6901L4.72047 15.1018L6.3531 13.9466L1.81631 7.53488L0.183686 8.6901ZM14.1905 0.889444L4.72728 13.9371L6.34629 15.1113L15.8095 2.06368L14.1905 0.889444Z" fill="white"/>
</svg>
