<svg width="12" height="11" viewBox="0 0 12 11" fill="none" xmlns="http://www.w3.org/2000/svg">
<path d="M3.12998 4.19533C2.58515 3.57126 1.63758 3.50702 1.01351 4.05184C0.389445 4.59666 0.325203 5.54424 0.870025 6.1683L3.12998 4.19533ZM5.33333 9L4.20336 9.98649C4.51062 10.3384 4.96432 10.5271 5.43054 10.4968C5.89676 10.4666 6.32225 10.2208 6.58141 9.83205L5.33333 9ZM11.2481 2.83205C11.7076 2.14276 11.5213 1.21145 10.8321 0.751925C10.1428 0.292396 9.21145 0.478657 8.75192 1.16795L11.2481 2.83205ZM0.870025 6.1683L4.20336 9.98649L6.46331 8.01351L3.12998 4.19533L0.870025 6.1683ZM6.58141 9.83205L11.2481 2.83205L8.75192 1.16795L4.08526 8.16795L6.58141 9.83205Z" fill="#5B96EB"/>
</svg>
