<svg width="36" height="36" viewBox="0 0 36 36" fill="none" xmlns="http://www.w3.org/2000/svg">
<path d="M20.6201 18.005L35.4156 3.2904C36.1249 2.58822 36.1249 1.45152 35.4156 0.751135C34.708 0.0489611 33.5588 0.0489611 32.8513 0.751135L18.0684 15.4532L3.14889 0.532004C2.44134 -0.177335 1.2921 -0.177335 0.584548 0.532004C-0.123 1.24313 -0.123 2.39417 0.584548 3.10351L15.4932 18.014L0.530661 32.8938C-0.176887 33.596 -0.176887 34.7327 0.530661 35.4331C1.23821 36.1352 2.38745 36.1352 3.095 35.4331L18.0449 20.5658L32.905 35.4277C33.6125 36.137 34.7618 36.137 35.4693 35.4277C36.1769 34.7166 36.1769 33.5655 35.4693 32.8562L20.6201 18.005Z" fill="white"/>
</svg>
