<svg width="16" height="16" viewBox="0 0 16 16" fill="none" xmlns="http://www.w3.org/2000/svg">
<g clip-path="url(#clip0)">
<path d="M2.0544 0.00195312H13.9466C15.0764 0.00195312 16 0.9259 16 2.05571V13.9479C16 15.0774 15.0764 16.0007 13.9466 16.0007H2.0544C0.924587 16.0007 0 15.0773 0 13.9479V2.05571C0 0.9259 0.924587 0.00195312 2.0544 0.00195312ZM11.6558 1.77886C11.2591 1.77886 10.9355 2.10371 10.9355 2.50019V4.22361C10.9355 4.62025 11.2591 4.94435 11.6558 4.94435H13.4639C13.86 4.94435 14.1843 4.62025 14.1843 4.22361V2.50019C14.1843 2.10371 13.86 1.77886 13.4639 1.77886H11.6558ZM14.1911 6.76761H12.7834C12.9169 7.20361 12.9892 7.66339 12.9892 8.14142C12.9892 10.8018 10.7617 12.9596 8.01504 12.9596C5.26907 12.9596 3.04149 10.8018 3.04149 8.14142C3.04149 7.66339 3.11456 7.20361 3.24741 6.76761H1.77867V13.5266C1.77867 13.8767 2.06448 14.1614 2.41419 14.1614H13.5559C13.9059 14.1614 14.1911 13.8767 14.1911 13.5266V6.76761ZM8.01509 4.85347C6.24123 4.85347 4.80229 6.24697 4.80229 7.9675C4.80229 9.68627 6.24123 11.0808 8.01509 11.0808C9.78992 11.0808 11.2289 9.68627 11.2289 7.9675C11.2289 6.24691 9.78992 4.85347 8.01509 4.85347Z" fill="#565656"/>
</g>
<defs>
<clipPath id="clip0">
<rect width="16" height="16" fill="white"/>
</clipPath>
</defs>
</svg>
