<svg width="18" height="18" viewBox="0 0 18 18" fill="none" xmlns="http://www.w3.org/2000/svg">
<g clip-path="url(#clip0)">
<path d="M7.45265 10.5475C5.73458 8.82948 5.34665 7.11141 5.25914 6.42306C5.23468 6.23273 5.30018 6.04186 5.43634 5.90665L6.82669 4.51692C7.03121 4.31253 7.0675 3.99398 6.9142 3.74882L4.70051 0.311441C4.53092 0.0399663 4.18268 -0.0580115 3.89641 0.0851995L0.342652 1.75889C0.111153 1.87288 -0.0250112 2.11884 0.00127291 2.37554C0.18748 4.14451 0.958686 8.49306 5.23214 12.7668C9.50558 17.0406 13.8535 17.8115 15.6234 17.9977C15.8801 18.024 16.1261 17.8878 16.2401 17.6563L17.9138 14.1025C18.0564 13.8169 17.9591 13.4696 17.6888 13.2997L14.2514 11.0866C14.0064 10.9332 13.6878 10.9692 13.4833 11.1735L12.0935 12.5639C11.9583 12.7 11.7675 12.7655 11.5771 12.7411C10.8888 12.6535 9.17072 12.2656 7.45265 10.5475Z" fill="#565656"/>
<path d="M14.2755 9.62075C13.9327 9.62075 13.6548 9.34285 13.6548 9.00006C13.6519 6.43029 11.5694 4.3478 8.9996 4.34489C8.6568 4.34489 8.37891 4.067 8.37891 3.7242C8.37891 3.38141 8.6568 3.10352 8.9996 3.10352C12.2547 3.10711 14.8926 5.74498 14.8961 9.00006C14.8961 9.34285 14.6183 9.62075 14.2755 9.62075Z" fill="#565656"/>
<path d="M17.3789 9.62069C17.0361 9.62069 16.7582 9.3428 16.7582 9C16.7534 4.71702 13.2826 1.24617 8.9996 1.24138C8.6568 1.24138 8.37891 0.963487 8.37891 0.62069C8.37891 0.277892 8.6568 0 8.9996 0C13.9679 0.0054732 17.9941 4.03171 17.9996 9C17.9996 9.16462 17.9342 9.32249 17.8178 9.43889C17.7014 9.5553 17.5435 9.62069 17.3789 9.62069Z" fill="#565656"/>
</g>
<defs>
<clipPath id="clip0">
<rect width="18" height="18" fill="white"/>
</clipPath>
</defs>
</svg>
